<?xml version="1.0" encoding="utf-8"?>
<!-- Generator: Adobe Illustrator 25.2.3, SVG Export Plug-In . SVG Version: 6.00 Build 0)  -->
<svg version="1.1" id="Layer_2" xmlns="http://www.w3.org/2000/svg" xmlns:xlink="http://www.w3.org/1999/xlink" x="0px" y="0px"
   viewBox="0 0 128 128" style="enable-background:new 0 0 128 128;" xml:space="preserve">
<path style="fill:#C4A878;" d="M39.92,75.22c0,0,0.47,6.72,0.28,10.14c-0.2,3.42-0.61,6.28-0.61,6.28l3.2,25.85l0.17,2.7
  c0,0,5.63,3.25,17.33,3.25c17.54,0,25.28-2.78,27.9-8.35c2.11-4.51-1.57-14.73-2.32-18.25c-2.47-11.6-1.04-19.98-1.04-19.98
  L39.92,75.22z"/>
<path style="fill:#E8D4AF;" d="M34.91,112.88c1.23,5.47,8.67,7.59,8.67,7.59s10.83,0.61,17.69-0.32c7.04-0.96,12.84-2.62,13.44-6.72
  c0.6-4.1,0.44-6.86,0.16-11.2c-0.12-1.92-0.32-7.2-0.32-7.2s-7.99,0.41-18.67-0.44c-10.52-0.84-16.22-3.34-16.22-3.34
  s-1.51,6.93-2.57,9.71C36.02,103.73,33.68,107.41,34.91,112.88z"/>
<path style="fill:#008080;" d="M62.66,3.98C23.48,3.93,5.89,30.38,6.57,56.76c0.61,23.71,36.82,26.65,54.89,26.91
  c26.97,0.39,59.19-5.08,59.81-27.59C121.98,29.92,102.97,4.02,62.66,3.98z"/>
<path style="fill:#A2D5D5;" d="M83.63,24.71c-4.59,6.36-0.81,13.33,4.02,17.09c5.87,4.56,13.46,5.31,17.07-0.23
  c4.08-6.27,0.88-12.36-3.31-16.65S88.21,18.35,83.63,24.71z"/>
</svg>